<svg width="150" height="90" viewBox="0 0 150 90" fill="none" xmlns="http://www.w3.org/2000/svg">
<g clip-path="url(#clip0_1_2)">
<path d="M68.2 10.2C67.9333 12.7333 67.7333 15.2 67.6 17.6C67.5333 19.9333 67.5 21.7333 67.5 23C67.5 24.6 67.5333 26.1 67.6 27.5C67.6667 28.9 67.7333 30.1333 67.8 31.2H65.5C65.0333 26.5333 64.4 22.8667 63.6 20.2C62.8 17.4667 61.4 15.5 59.4 14.3C57.4 13.1 54.3 12.5 50.1 12.5H44.7V69.4C44.7 72.0667 44.9333 74.0667 45.4 75.4C45.9333 76.7333 46.9333 77.6333 48.4 78.1C49.8667 78.5667 52 78.8667 54.8 79V81C53.0667 80.8667 50.8667 80.8 48.2 80.8C45.5333 80.7333 42.8333 80.7 40.1 80.7C37.1 80.7 34.2667 80.7333 31.6 80.8C29 80.8 26.9 80.8667 25.3 81V79C28.1 78.8667 30.2333 78.5667 31.7 78.1C33.1667 77.6333 34.1333 76.7333 34.6 75.4C35.1333 74.0667 35.4 72.0667 35.4 69.4V12.5H30C25.8667 12.5 22.7667 13.1 20.7 14.3C18.7 15.5 17.3 17.4667 16.5 20.2C15.7 22.8667 15.0667 26.5333 14.6 31.2H12.3C12.4333 30.1333 12.5 28.9 12.5 27.5C12.5667 26.1 12.6 24.6 12.6 23C12.6 21.7333 12.5333 19.9333 12.4 17.6C12.3333 15.2 12.1667 12.7333 11.9 10.2C14.7 10.2667 17.7333 10.3333 21 10.4C24.3333 10.4667 27.6667 10.5 31 10.5C34.3333 10.5 37.3667 10.5 40.1 10.5C42.8333 10.5 45.8333 10.5 49.1 10.5C52.4333 10.5 55.7667 10.4667 59.1 10.4C62.4333 10.3333 65.4667 10.2667 68.2 10.2ZM93.0294 38.68C96.4427 38.68 99.5094 39.4267 102.229 40.92C104.949 42.4133 107.109 44.76 108.709 47.96C110.363 51.16 111.189 55.32 111.189 60.44C111.189 65.56 110.363 69.72 108.709 72.92C107.109 76.0667 104.949 78.3867 102.229 79.88C99.5094 81.3733 96.4427 82.12 93.0294 82.12C89.6694 82.12 86.6027 81.3733 83.8294 79.88C81.1094 78.3867 78.9227 76.0667 77.2694 72.92C75.6694 69.72 74.8694 65.56 74.8694 60.44C74.8694 55.32 75.6694 51.16 77.2694 47.96C78.9227 44.76 81.1094 42.4133 83.8294 40.92C86.6027 39.4267 89.6694 38.68 93.0294 38.68ZM93.0294 40.28C89.9894 40.28 87.4827 41.8533 85.5094 45C83.5894 48.1467 82.6294 53.2933 82.6294 60.44C82.6294 67.5867 83.5894 72.7333 85.5094 75.88C87.4827 78.9733 89.9894 80.52 93.0294 80.52C96.0694 80.52 98.5494 78.9733 100.469 75.88C102.443 72.7333 103.429 67.5867 103.429 60.44C103.429 53.2933 102.443 48.1467 100.469 45C98.5494 41.8533 96.0694 40.28 93.0294 40.28ZM127.538 69.6C129.271 69.6 130.771 70.2333 132.038 71.5C133.304 72.7667 133.938 74.2667 133.938 76C133.938 77.7333 133.304 79.2333 132.038 80.5C130.771 81.7667 129.271 82.4 127.538 82.4C125.804 82.4 124.304 81.7667 123.038 80.5C121.771 79.2333 121.138 77.7333 121.138 76C121.138 74.2667 121.771 72.7667 123.038 71.5C124.304 70.2333 125.804 69.6 127.538 69.6Z" fill="black"/>
</g>
<defs>
<clipPath id="clip0_1_2">
<rect width="150" height="90" fill="white"/>
</clipPath>
</defs>
</svg>
