<svg width="150" height="150" viewBox="0 0 150 150" fill="none" xmlns="http://www.w3.org/2000/svg">
<path d="M65.2 45.2C64.9333 47.7333 64.7333 50.2 64.6 52.6C64.5333 54.9333 64.5 56.7333 64.5 58C64.5 59.6 64.5333 61.1 64.6 62.5C64.6667 63.9 64.7333 65.1333 64.8 66.2H62.5C62.0333 61.5333 61.4 57.8667 60.6 55.2C59.8 52.4667 58.4 50.5 56.4 49.3C54.4 48.1 51.3 47.5 47.1 47.5H41.7V104.4C41.7 107.067 41.9333 109.067 42.4 110.4C42.9333 111.733 43.9333 112.633 45.4 113.1C46.8667 113.567 49 113.867 51.8 114V116C50.0667 115.867 47.8667 115.8 45.2 115.8C42.5333 115.733 39.8333 115.7 37.1 115.7C34.1 115.7 31.2667 115.733 28.6 115.8C26 115.8 23.9 115.867 22.3 116V114C25.1 113.867 27.2333 113.567 28.7 113.1C30.1667 112.633 31.1333 111.733 31.6 110.4C32.1333 109.067 32.4 107.067 32.4 104.4V47.5H27C22.8667 47.5 19.7667 48.1 17.7 49.3C15.7 50.5 14.3 52.4667 13.5 55.2C12.7 57.8667 12.0667 61.5333 11.6 66.2H9.3C9.43333 65.1333 9.5 63.9 9.5 62.5C9.56667 61.1 9.6 59.6 9.6 58C9.6 56.7333 9.53333 54.9333 9.4 52.6C9.33333 50.2 9.16667 47.7333 8.9 45.2C11.7 45.2667 14.7333 45.3333 18 45.4C21.3333 45.4667 24.6667 45.5 28 45.5C31.3333 45.5 34.3667 45.5 37.1 45.5C39.8333 45.5 42.8333 45.5 46.1 45.5C49.4333 45.5 52.7667 45.4667 56.1 45.4C59.4333 45.3333 62.4667 45.2667 65.2 45.2ZM91.2125 63.1C95.4792 63.1 99.3125 64.0333 102.713 65.9C106.113 67.7667 108.813 70.7 110.813 74.7C112.879 78.7 113.913 83.9 113.913 90.3C113.913 96.7 112.879 101.9 110.813 105.9C108.813 109.833 106.113 112.733 102.713 114.6C99.3125 116.467 95.4792 117.4 91.2125 117.4C87.0125 117.4 83.1792 116.467 79.7125 114.6C76.3125 112.733 73.5792 109.833 71.5125 105.9C69.5125 101.9 68.5125 96.7 68.5125 90.3C68.5125 83.9 69.5125 78.7 71.5125 74.7C73.5792 70.7 76.3125 67.7667 79.7125 65.9C83.1792 64.0333 87.0125 63.1 91.2125 63.1ZM91.2125 65.1C87.4125 65.1 84.2792 67.0667 81.8125 71C79.4125 74.9333 78.2125 81.3667 78.2125 90.3C78.2125 99.2333 79.4125 105.667 81.8125 109.6C84.2792 113.467 87.4125 115.4 91.2125 115.4C95.0125 115.4 98.1125 113.467 100.513 109.6C102.979 105.667 104.213 99.2333 104.213 90.3C104.213 81.3667 102.979 74.9333 100.513 71C98.1125 67.0667 95.0125 65.1 91.2125 65.1ZM131.198 104.6C132.931 104.6 134.431 105.233 135.698 106.5C136.964 107.767 137.598 109.267 137.598 111C137.598 112.733 136.964 114.233 135.698 115.5C134.431 116.767 132.931 117.4 131.198 117.4C129.464 117.4 127.964 116.767 126.698 115.5C125.431 114.233 124.798 112.733 124.798 111C124.798 109.267 125.431 107.767 126.698 106.5C127.964 105.233 129.464 104.6 131.198 104.6Z" fill="black"/>
</svg>
