<svg width="150" height="90" viewBox="0 0 150 90" fill="none" xmlns="http://www.w3.org/2000/svg">
<g clip-path="url(#clip0_1_2)">
<path d="M68.2 15.2C67.9333 17.7333 67.7333 20.2 67.6 22.6C67.5333 24.9333 67.5 26.7333 67.5 28C67.5 29.6 67.5333 31.1 67.6 32.5C67.6667 33.9 67.7333 35.1333 67.8 36.2H65.5C65.0333 31.5333 64.4 27.8667 63.6 25.2C62.8 22.4667 61.4 20.5 59.4 19.3C57.4 18.1 54.3 17.5 50.1 17.5H44.7V74.4C44.7 77.0667 44.9333 79.0667 45.4 80.4C45.9333 81.7333 46.9333 82.6333 48.4 83.1C49.8667 83.5667 52 83.8667 54.8 84V86C53.0667 85.8667 50.8667 85.8 48.2 85.8C45.5333 85.7333 42.8333 85.7 40.1 85.7C37.1 85.7 34.2667 85.7333 31.6 85.8C29 85.8 26.9 85.8667 25.3 86V84C28.1 83.8667 30.2333 83.5667 31.7 83.1C33.1667 82.6333 34.1333 81.7333 34.6 80.4C35.1333 79.0667 35.4 77.0667 35.4 74.4V17.5H30C25.8667 17.5 22.7667 18.1 20.7 19.3C18.7 20.5 17.3 22.4667 16.5 25.2C15.7 27.8667 15.0667 31.5333 14.6 36.2H12.3C12.4333 35.1333 12.5 33.9 12.5 32.5C12.5667 31.1 12.6 29.6 12.6 28C12.6 26.7333 12.5333 24.9333 12.4 22.6C12.3333 20.2 12.1667 17.7333 11.9 15.2C14.7 15.2667 17.7333 15.3333 21 15.4C24.3333 15.4667 27.6667 15.5 31 15.5C34.3333 15.5 37.3667 15.5 40.1 15.5C42.8333 15.5 45.8333 15.5 49.1 15.5C52.4333 15.5 55.7667 15.4667 59.1 15.4C62.4333 15.3333 65.4667 15.2667 68.2 15.2ZM93.0294 43.68C96.4427 43.68 99.5094 44.4267 102.229 45.92C104.949 47.4133 107.109 49.76 108.709 52.96C110.363 56.16 111.189 60.32 111.189 65.44C111.189 70.56 110.363 74.72 108.709 77.92C107.109 81.0667 104.949 83.3867 102.229 84.88C99.5094 86.3733 96.4427 87.12 93.0294 87.12C89.6694 87.12 86.6027 86.3733 83.8294 84.88C81.1094 83.3867 78.9227 81.0667 77.2694 77.92C75.6694 74.72 74.8694 70.56 74.8694 65.44C74.8694 60.32 75.6694 56.16 77.2694 52.96C78.9227 49.76 81.1094 47.4133 83.8294 45.92C86.6027 44.4267 89.6694 43.68 93.0294 43.68ZM93.0294 45.28C89.9894 45.28 87.4827 46.8533 85.5094 50C83.5894 53.1467 82.6294 58.2933 82.6294 65.44C82.6294 72.5867 83.5894 77.7333 85.5094 80.88C87.4827 83.9733 89.9894 85.52 93.0294 85.52C96.0694 85.52 98.5494 83.9733 100.469 80.88C102.443 77.7333 103.429 72.5867 103.429 65.44C103.429 58.2933 102.443 53.1467 100.469 50C98.5494 46.8533 96.0694 45.28 93.0294 45.28ZM127.538 74.6C129.271 74.6 130.771 75.2333 132.038 76.5C133.304 77.7667 133.938 79.2667 133.938 81C133.938 82.7333 133.304 84.2333 132.038 85.5C130.771 86.7667 129.271 87.4 127.538 87.4C125.804 87.4 124.304 86.7667 123.038 85.5C121.771 84.2333 121.138 82.7333 121.138 81C121.138 79.2667 121.771 77.7667 123.038 76.5C124.304 75.2333 125.804 74.6 127.538 74.6Z" fill="black"/>
</g>
<defs>
<clipPath id="clip0_1_2">
<rect width="150" height="90" fill="white"/>
</clipPath>
</defs>
</svg>
